<svg xmlns="http://www.w3.org/2000/svg" xmlns:xlink="http://www.w3.org/1999/xlink" width="500" zoomAndPan="magnify" viewBox="0 0 375 374.999991" height="500" preserveAspectRatio="xMidYMid meet" version="1.0"><defs><clipPath id="acdbb522e8"><path d="M 37.5 99.273438 L 335.25 99.273438 L 335.25 307 L 37.5 307 Z M 37.5 99.273438 " clip-rule="nonzero"/></clipPath><clipPath id="1b47869d62"><path d="M 243.464844 4 L 338.890625 4 L 338.890625 99.261719 L 243.464844 99.261719 Z M 243.464844 4 " clip-rule="nonzero"/></clipPath><clipPath id="d1b5f8b248"><path d="M 234.65625 59 L 263 59 L 263 88 L 234.65625 88 Z M 234.65625 59 " clip-rule="nonzero"/></clipPath><clipPath id="fea3c65316"><path d="M 302.679688 0 L 344.597656 0 L 344.597656 37.992188 L 302.679688 37.992188 Z M 302.679688 0 " clip-rule="nonzero"/></clipPath></defs><rect x="-37.5" width="450" fill="#ffffff" y="-37.499999" height="449.999989" fill-opacity="1"/><rect x="-37.5" width="450" fill="#170038" y="-37.499999" height="449.999989" fill-opacity="1"/><g clip-path="url(#acdbb522e8)"><path fill="#ffffff" d="M 313.300781 294.578125 C 311.660156 293.664062 310.320312 292.691406 309.347656 291.71875 C 308.4375 290.808594 307.769531 289.46875 307.28125 287.769531 C 306.796875 285.945312 306.429688 283.511719 306.1875 280.59375 C 306.007812 277.617188 305.882812 273.726562 305.882812 268.921875 L 305.882812 137.132812 C 305.882812 127.40625 306.429688 120.839844 307.464844 117.800781 C 308.074219 116.097656 309.046875 114.699219 310.320312 113.484375 C 311.660156 112.269531 313.238281 111.175781 315.003906 110.386719 C 316.765625 109.535156 318.710938 108.925781 320.65625 108.5625 C 322.664062 108.195312 324.609375 108.015625 326.429688 108.015625 L 335.125 108.015625 L 335.367188 99.320312 L 244.792969 99.320312 L 244.792969 107.894531 L 253.542969 107.894531 C 257.984375 107.894531 262.359375 109.046875 266.492188 111.296875 C 268.132812 112.207031 269.472656 113.242188 270.503906 114.277344 C 271.417969 115.25 272.144531 116.585938 272.632812 118.289062 C 273.179688 120.113281 273.484375 122.542969 273.726562 125.460938 C 273.910156 128.441406 274.03125 132.328125 274.03125 137.132812 L 274.03125 194.09375 L 246.066406 194.09375 C 245.945312 191.722656 245.703125 189.351562 245.460938 187.039062 C 243.636719 171.539062 238.957031 157.496094 231.476562 145.097656 C 223.757812 132.207031 213.972656 122.117188 202.300781 115.003906 C 199.136719 113.058594 195.855469 111.359375 192.390625 109.839844 C 176.34375 102.847656 152.757812 99.320312 122.179688 99.320312 L 37.5 99.320312 L 37.5 107.894531 L 46.679688 107.894531 C 53.914062 107.894531 59.445312 109.960938 63.03125 114.03125 C 64.792969 115.976562 66.859375 121.507812 66.859375 136.949219 L 66.859375 268.921875 C 66.859375 282.964844 65.21875 288.316406 63.820312 290.382812 C 60.355469 295.488281 54.765625 297.980469 46.679688 297.980469 L 37.5 297.980469 L 37.5 306.613281 L 130.265625 306.613281 C 149.109375 306.613281 166.007812 304 180.414062 298.832031 C 183.757812 297.617188 187.042969 296.277344 190.140625 294.878906 C 189.960938 294.820312 189.777344 294.699219 189.59375 294.578125 C 187.890625 293.664062 186.554688 292.632812 185.582031 291.597656 C 184.671875 290.625 183.941406 289.289062 183.453125 287.644531 C 182.96875 285.824219 182.605469 283.511719 182.359375 280.59375 C 182.238281 278.527344 182.117188 275.914062 182.117188 272.875 C 182.117188 271.597656 182.117188 270.320312 182.117188 268.921875 L 182.117188 208.195312 L 208.804688 208.195312 C 208.742188 210.566406 208.5625 212.9375 208.378906 215.246094 C 207.527344 224.363281 205.703125 232.875 202.847656 240.65625 C 199.441406 250.019531 194.824219 258.285156 189.167969 265.277344 L 189.167969 268.863281 C 189.167969 273.484375 189.289062 277.25 189.472656 280.046875 C 189.65625 283.027344 190.019531 284.730469 190.261719 285.640625 C 190.507812 286.429688 190.6875 286.671875 190.6875 286.671875 C 190.992188 286.976562 191.660156 287.585938 193 288.375 C 194.824219 289.410156 196.707031 290.078125 198.589844 290.503906 C 205.339844 286.671875 211.417969 282.175781 216.765625 277.191406 C 226.492188 268.011719 233.910156 256.828125 238.832031 244 C 242.300781 235.0625 244.546875 225.460938 245.582031 215.246094 C 245.824219 212.9375 246.007812 210.566406 246.128906 208.195312 L 273.96875 208.195312 L 273.96875 268.921875 C 273.96875 283.816406 272.085938 289.226562 270.503906 291.171875 C 266.917969 295.671875 261.203125 297.980469 253.484375 297.980469 L 244.792969 297.980469 L 244.792969 306.613281 L 335.183594 306.613281 L 335.183594 298.042969 L 326.429688 298.042969 C 321.8125 298.042969 317.375 296.886719 313.300781 294.578125 Z M 182.117188 194.09375 L 182.117188 143.820312 C 181.753906 143.394531 181.386719 142.96875 181.023438 142.601562 C 174.640625 135.671875 166.859375 130.261719 157.984375 126.554688 C 155.308594 125.460938 152.574219 124.488281 149.777344 123.699219 C 149.839844 124.246094 149.898438 124.851562 149.898438 125.523438 C 150.082031 128.5 150.203125 132.390625 150.203125 137.191406 L 150.203125 268.921875 C 150.203125 275.304688 149.898438 279.988281 149.351562 283.332031 C 148.683594 287.828125 147.710938 290.078125 146.859375 291.171875 C 141.265625 292.386719 135.429688 292.996094 129.351562 292.996094 C 124.734375 292.996094 119.566406 292.632812 113.851562 291.839844 C 109.171875 291.171875 104.125 290.261719 98.777344 289.105469 L 98.777344 117.863281 C 104.125 116.585938 109.171875 115.613281 113.851562 114.945312 C 113.851562 114.945312 113.851562 114.945312 113.910156 114.945312 C 118.957031 114.214844 123.699219 113.851562 128.136719 113.851562 C 135.007812 113.851562 141.570312 114.578125 147.832031 115.976562 C 152.269531 116.949219 156.523438 118.347656 160.597656 120.050781 C 168.621094 123.394531 175.855469 128.015625 182.117188 133.789062 C 183.515625 135.066406 184.851562 136.402344 186.191406 137.863281 C 187.222656 138.957031 188.195312 140.109375 189.167969 141.328125 C 194.882812 148.316406 199.503906 156.644531 202.90625 166.066406 C 205.277344 172.574219 206.917969 179.625 207.890625 187.101562 C 208.195312 189.410156 208.4375 191.78125 208.5625 194.152344 L 182.117188 194.152344 Z M 182.117188 194.09375 " fill-opacity="1" fill-rule="nonzero"/></g><g clip-path="url(#1b47869d62)"><path fill="#ffffff" d="M 291.117188 4.082031 C 289.878906 49.429688 288.875 50.433594 243.527344 51.671875 C 288.875 52.910156 289.878906 53.914062 291.117188 99.261719 C 292.355469 53.914062 293.359375 52.910156 338.703125 51.671875 C 293.359375 50.433594 292.355469 49.429688 291.117188 4.082031 " fill-opacity="1" fill-rule="nonzero"/></g><g clip-path="url(#d1b5f8b248)"><path fill="#ffffff" d="M 248.382812 59.707031 C 248.023438 72.785156 247.734375 73.074219 234.65625 73.429688 C 247.734375 73.789062 248.023438 74.078125 248.382812 87.15625 C 248.738281 74.078125 249.027344 73.789062 262.105469 73.429688 C 249.027344 73.074219 248.738281 72.785156 248.382812 59.707031 " fill-opacity="1" fill-rule="nonzero"/></g><g clip-path="url(#fea3c65316)"><path fill="#ffffff" d="M 323.75 37.851562 C 324.292969 17.984375 324.730469 17.542969 344.597656 17 C 324.730469 16.457031 324.292969 16.019531 323.75 -3.847656 C 323.207031 16.019531 322.765625 16.457031 302.898438 17 C 322.765625 17.542969 323.207031 17.984375 323.75 37.851562 " fill-opacity="1" fill-rule="nonzero"/></g></svg>